<svg height="512pt" viewBox="-56 0 512 512.001" width="512pt" xmlns="http://www.w3.org/2000/svg"><path d="m357.75 374.101562-84.488281-24.847656c-10.234375-3.011718-17.261719-12.402344-17.261719-23.070312v-22.085938h-112.226562v22.085938c0 10.667968-7.027344 20.058594-17.261719 23.070312l-84.484375 24.847656c-20.472656 6.019532-34.527344 24.808594-34.527344 46.144532v84.253906h384.773438v-84.253906c0-21.335938-14.054688-40.121094-34.523438-46.144532zm0 0" fill="#e3aa75"/><path d="m143.773438 304.097656v22.085938c0 4.390625-1.242188 8.53125-3.355469 12.132812 18.8125 9.179688 38.8125 13.875 59.46875 13.875 20.660156 0 40.65625-4.695312 59.46875-13.875-2.113281-3.601562-3.355469-7.746094-3.355469-12.132812v-22.085938zm0 0" fill="#d29b6e"/><path d="m357.75 374.101562-33.113281-9.738281c-13.292969 38.953125-64.035157 67.992188-124.75 67.992188-60.714844 0-111.453125-29.039063-124.75-67.992188l-33.109375 9.738281c-20.472656 6.019532-34.527344 24.808594-34.527344 46.144532v84.253906h384.773438v-84.253906c0-21.335938-14.054688-40.121094-34.523438-46.144532zm0 0" fill="#ffe09f"/><path d="m346.359375 365.878906-35.898437-14.4375c-2.691407-1.082031-5.757813-.625-8.019532 1.195313l-190.730468 151.863281h224.453124l15.140626-130.050781c.523437-3.652344-1.519532-7.191407-4.945313-8.570313zm0 0" fill="#eceaec"/><path d="m199.886719 504.5 120.242187-144.289062-17.6875-7.574219-190.730468 151.863281zm0 0" fill="#dad8db"/><path d="m256 504.5 54.136719-73.039062c4.320312-5.554688 13.171875-1.390626 11.648437 5.476562l-9.671875 67.5625zm0 0" fill="#dad8db"/><path d="m316.121094 167.824219h-4.007813v-96.195313h-224.453125v96.195313h-4.007812c-11.066406 0-20.039063 8.972656-20.039063 20.039062 0 11.066407 8.972657 20.039063 20.039063 20.039063h4.007812v8.015625c0 61.980469 50.246094 112.226562 112.226563 112.226562s112.226562-50.246093 112.226562-112.226562v-8.015625h4.007813c11.070312 0 20.039062-8.972656 20.039062-20.039063 0-11.066406-8.96875-20.039062-20.039062-20.039062zm0 0" fill="#f5b97d"/><path d="m284.207031 94.933594c6.871094-6.539063 12.082031-14.558594 15.46875-23.304688h-212.015625v96.195313h-2.863281c-10.480469 0-20.035156 7.539062-21.082031 17.972656-1.199219 11.996094 8.1875 22.105469 19.9375 22.105469h4.007812v8.019531c0 61.980469 50.246094 112.222656 112.226563 112.222656 6.851562 0 13.527343-.707031 20.039062-1.886719-52.398437-9.460937-92.183593-55.207031-92.183593-110.335937v-44.804687c0-7.761719 5.566406-14.351563 13.195312-15.78125 42.304688-7.921876 106.949219-25.839844 143.269531-60.402344zm0 0" fill="#e3aa75"/><path d="m312.113281 215.917969v-8.015625h-7.453125c-5.359375 0-10.363281 2.679687-13.335937 7.140625l-.179688.265625c-6.429687 9.644531-18.824219 13.328125-29.480469 8.761718l-31.679687-13.574218c-3.988281-1.710938-8.285156-2.59375-12.628906-2.59375h-34.933594c-4.34375 0-8.640625.882812-12.632813 2.59375l-31.675781 13.574218c-10.65625 4.566407-23.054687.882813-29.484375-8.761718l-.175781-.265625c-2.976563-4.460938-7.980469-7.140625-13.339844-7.140625h-7.453125v8.015625c0 61.980469 50.246094 112.226562 112.226563 112.226562s112.226562-50.246093 112.226562-112.226562zm0 0" fill="#eceaec"/><path d="m281.484375 23.53125h-15.964844l-37.074219 60.621094s29.496094 36.648437 55.140626 49.582031c2.671874 1.347656 4.480468 3.945313 4.480468 6.9375v12.503906c0 8.296875 6.324219 15.21875 14.585938 15.96875l24.960937 2.261719 9.640625-85.5625c3.695313-33.242188-22.324218-62.3125-55.769531-62.3125zm0 0" fill="#eceaec"/><path d="m235.113281 7.5h-55.507812c-66.394531 0-118.277344 57.328125-111.667969 123.394531l4.191406 40.683594 25.066406-2.378906c8.226563-.777344 14.515626-7.691407 14.515626-15.957031v-12.703126c0-4.148437 3.121093-7.613281 7.253906-7.976562 24.273437-2.125 103.628906-12.199219 148.664062-55.050781 7.953125-7.566407 12.421875-18.09375 12.421875-29.066407 0-15.46875-8.75-29.90625-22.867187-36.230468-6.84375-3.0625-14.347656-4.714844-22.070313-4.714844zm0 0" fill="#dad8db"/><path d="m219.929688 326.257812c-49.195313-8.882812-87.261719-49.746093-91.734376-100.328124-7.679687-.152344-15.078124-3.894532-19.5625-10.621094l-.179687-.265625c-2.972656-4.460938-7.976563-7.140625-13.339844-7.140625h-7.449219v8.019531c0 61.980469 50.242188 112.222656 112.222657 112.222656 6.851562 0 13.527343-.710937 20.042969-1.886719zm0 0" fill="#dad8db"/><path d="m87.660156 368.226562c0 8.855469-7.175781 16.03125-16.03125 16.03125-8.855468 0-16.03125-7.175781-16.03125-16.03125 0-8.855468 7.175782-16.03125 16.03125-16.03125 8.855469 0 16.03125 7.175782 16.03125 16.03125zm0 0" fill="#f6d190"/><path d="m151.792969 168.339844c-4.144531 0-7.5 3.355468-7.5 7.5v8.015625c0 4.140625 3.355469 7.5 7.5 7.5 4.140625 0 7.5-3.359375 7.5-7.5v-8.015625c0-4.144532-3.359375-7.5-7.5-7.5zm0 0"/><path d="m247.984375 168.339844c-4.140625 0-7.5 3.355468-7.5 7.5v8.015625c0 4.140625 3.359375 7.5 7.5 7.5s7.5-3.359375 7.5-7.5v-8.015625c0-4.144532-3.359375-7.5-7.5-7.5zm0 0"/><path d="m229.203125 245.308594c2.949219-2.910156 2.980469-7.660156.070313-10.609375-2.910157-2.945313-7.65625-2.976563-10.605469-.070313-2.738281 2.703125-9.296875 5.855469-18.78125 5.855469-9.480469 0-16.042969-3.152344-18.78125-5.855469-2.949219-2.910156-7.695313-2.875-10.605469.070313-2.910156 2.949219-2.875 7.699219.070312 10.609375 6.460938 6.371094 17.417969 10.175781 29.316407 10.175781 11.898437 0 22.859375-3.804687 29.316406-10.175781zm0 0"/><path d="m359.867188 366.90625-5.632813-1.664062c-2.5625-3.746094-6.195313-6.773438-10.613281-8.550782l-26.058594-10.476562c-7.054688-2.835938-15.023438-2.050782-21.367188 1.964844l-20.816406-6.121094c-6.996094-2.054688-11.878906-8.585938-11.878906-15.875v-8.882813c33.679688-21.210937 56.113281-58.722656 56.113281-101.382812v-.746094c6.472657-.832031 12.507813-3.945313 16.933594-8.835937 5.210937-5.757813 7.75-13.519532 6.972656-21.289063-.628906-6.292969-3.5625-11.960937-7.9375-16.28125.003907-.039063.011719-.078125.015625-.117187l9.109375-81.980469c1.996094-17.957031-3.769531-35.984375-15.824219-49.449219-12.050781-13.464844-29.328124-21.1875-47.398437-21.1875h-4.945313c-11.191406-10.210938-25.886718-16.03125-41.425781-16.03125h-55.507812c-33.761719 0-66.117188 14.355469-88.769531 39.390625-22.65625 25.03125-33.722657 58.65625-30.363282 92.25l3.695313 36.929687c.003906.066407.019531.128907.027343.191407-4.375 4.324219-7.308593 9.992187-7.941406 16.285156-.777344 7.773437 1.765625 15.53125 6.972656 21.289063 4.425782 4.890624 10.460938 8.003906 16.9375 8.835937v.75c0 42.65625 22.429688 80.171875 56.113282 101.378906v8.882813c0 7.292968-4.886719 13.820312-11.878906 15.875l-35.324219 10.390625c-4.308594-4.761719-10.535157-7.753907-17.445313-7.753907-11.675781 0-21.386718 8.546876-23.21875 19.710938l-8.5 2.5c-23.5 6.914062-39.910156 28.847656-39.910156 53.339844v84.253906c0 4.140625 3.359375 7.5 7.5 7.5s7.5-3.359375 7.5-7.5v-84.253906c0-17.886719 11.984375-33.898438 29.140625-38.945313l6.742187-1.984375c3.96875 7.398438 11.78125 12.441406 20.746094 12.441406 3.023438 0 5.914063-.578124 8.570313-1.621093 23.394531 27.320312 60.273437 44.898437 101.726562 48.859375l-74.886719 59.636718c-3.238281 2.582032-3.773437 7.300782-1.195312 10.539063 2.582031 3.238281 7.300781 3.773437 10.539062 1.195313l187.085938-148.996094c2.0625-1.640625 4.757812-2.214844 7.28125-1.617188l-9.746094 11.691406c-2.652344 3.183594-2.21875 7.910157.960938 10.5625 1.402344 1.167969 3.105468 1.738282 4.796875 1.738282 2.148437 0 4.28125-.917969 5.765625-2.699219l12.914062-15.496094 12.582032 5.058594c3.5625 1.433594 5.738281 5.101563 5.289062 8.914063l-14.597656 124.101562c-.484375 4.113281 2.457031 7.839844 6.570312 8.324219.296875.035156.59375.050781.886719.050781 3.75 0 6.988281-2.808594 7.4375-6.621094l14.5-123.253906c15.820313 5.800781 26.664063 21.113281 26.664063 38.121094v84.253906c0 4.140625 3.359374 7.5 7.5 7.5 4.144531 0 7.5-3.359375 7.5-7.5v-84.253906c0-24.492188-16.410157-46.425782-39.90625-53.339844zm-264.703126-150.988281v-.511719c2.839844.015625 5.472657 1.429688 7.050782 3.796875l.175781.265625c6.003906 9.003906 15.972656 14.050781 26.265625 14.050781 4.164062 0 8.382812-.828125 12.414062-2.554687l31.675782-13.574219c3.074218-1.320313 6.332031-1.988281 9.675781-1.988281h34.933594c3.347656 0 6.601562.667968 9.679687 1.988281 3.804688 1.628906 8.214844-.132813 9.847656-3.941406 1.628907-3.804688-.132812-8.214844-3.941406-9.847657-4.953125-2.121093-10.195312-3.199218-15.582031-3.199218h-34.9375c-5.386719 0-10.628906 1.078125-15.582031 3.199218l-31.679688 13.578126c-7.328125 3.140624-15.863281.605468-20.285156-6.03125l-.179688-.265626c-4.371093-6.5625-11.691406-10.480468-19.578124-10.480468h-11.460938c-3.535156 0-6.925781-1.503906-9.304688-4.128906-2.40625-2.660157-3.53125-6.117188-3.167968-9.730469.628906-6.292969 6.609375-11.222657 13.617187-11.222657h10.878907c12.976562 0 23.53125-10.554687 23.53125-23.53125v-11.761718c9.417968-.851563 27.292968-2.878906 48.160156-7.285156 41.101562-8.675782 72.539062-21.90625 93.433594-39.320313 3.179687-2.652344 3.609374-7.378906.957031-10.5625-2.648438-3.183594-7.378907-3.613281-10.5625-.960937-45.601563 38.003906-138.96875 43.648437-139.90625 43.699218-3.972657.222656-7.082031 3.507813-7.082031 7.488282v18.703124c0 4.707032-3.828126 8.535157-8.53125 8.535157h-10.878907c-2.160156 0-4.273437.242187-6.3125.691406l-3.085937-30.867187c-2.941406-29.386719 6.738281-58.796876 26.554687-80.695313 19.816407-21.894531 48.117188-34.453125 77.648438-34.453125h55.507812c15.585938 0 30.050781 7.742188 38.695313 20.707031 2.296875 3.449219 6.953125 4.378907 10.398437 2.082031 2.203125-1.46875 3.371094-3.898437 3.335938-6.363281 11.554687 1.457031 22.3125 7.023438 30.164062 15.796875 9.210938 10.292969 13.617188 24.0625 12.09375 37.789063l-8.445312 76.015625c-2.0625-.457032-4.195313-.707032-6.378907-.707032h-10.878906c-4.707031 0-8.53125-3.828124-8.53125-8.53125v-16.03125c0-2.839843-1.605468-5.4375-4.148437-6.707031-14.566407-7.285156-22.042969-14.574219-22.117188-14.648437-2.929687-2.910156-7.664062-2.902344-10.585937.019531-2.929688 2.929687-2.929688 7.679687 0 10.605469.332031.332031 7.648437 7.570312 21.851562 15.277344v11.484374c0 12.976563 10.554688 23.53125 23.53125 23.53125h10.878906c7.007813 0 12.988282 4.929688 13.617188 11.222657.363281 3.613281-.761719 7.070312-3.167969 9.730469-2.375 2.625-5.765625 4.128906-9.304687 4.128906h-11.460938c-7.882812 0-15.203125 3.917968-19.582031 10.488281l-.171875.257813c-4.425781 6.632812-12.957031 9.171874-20.289062 6.03125l-5.664063-2.429688c-3.804687-1.628906-8.214844.132812-9.847656 3.941406-1.632813 3.804688.132812 8.214844 3.941406 9.847656l5.664063 2.425782c4.027343 1.726562 8.242187 2.554687 12.410156 2.554687 10.289062-.003906 20.261718-5.050781 26.269531-14.058593l.171875-.257813c1.578125-2.367187 4.210938-3.78125 7.050781-3.796875v.511719c0 57.746093-46.976562 104.726562-104.726562 104.726562-57.746094 0-104.722657-46.980469-104.722657-104.726562zm-32.066406 152.308593c0-4.707031 3.828125-8.53125 8.53125-8.53125 4.707032 0 8.535156 3.828126 8.535156 8.53125 0 4.703126-3.828124 8.53125-8.535156 8.53125-4.703125 0-8.53125-3.828124-8.53125-8.53125zm28.601563 12.273438c2.195312-3.578125 3.460937-7.78125 3.460937-12.273438 0-.644531-.03125-1.28125-.082031-1.910156l33.550781-9.867187c13.332032-3.921875 22.644532-16.367188 22.644532-30.265625v-.863282c14.863281 6.628907 31.3125 10.324219 48.613281 10.324219 17.296875 0 33.75-3.691406 48.613281-10.324219v.863282c0 13.898437 9.3125 26.34375 22.644531 30.265625l10.535157 3.097656-82 65.304687c-43.464844-.050781-84.351563-16.945312-107.980469-44.351562zm0 0"/><path d="m159.808594 144.289062h-16.03125c-4.144532 0-7.5 3.359376-7.5 7.5 0 4.144532 3.355468 7.5 7.5 7.5h16.03125c4.140625 0 7.5-3.355468 7.5-7.5 0-4.140624-3.359375-7.5-7.5-7.5zm0 0"/><path d="m256 159.289062c4.140625 0 7.5-3.355468 7.5-7.5 0-4.140624-3.359375-7.5-7.5-7.5h-16.03125c-4.140625 0-7.5 3.359376-7.5 7.5 0 4.144532 3.359375 7.5 7.5 7.5zm0 0"/><path d="m292.867188 392.925781c-3.183594-2.652343-7.910157-2.222656-10.5625.960938l-88.179688 105.8125c-2.652344 3.179687-2.222656 7.910156.960938 10.5625 1.402343 1.167969 3.105468 1.738281 4.796874 1.738281 2.148438 0 4.28125-.921875 5.765626-2.699219l88.179687-105.8125c2.652344-3.183593 2.21875-7.910156-.960937-10.5625zm0 0"/></svg>